<?xml version="1.0" encoding="UTF-8" standalone="no"?><!DOCTYPE svg PUBLIC "-//W3C//DTD SVG 1.1//EN" "http://www.w3.org/Graphics/SVG/1.1/DTD/svg11.dtd"><svg width="100%" height="100%" viewBox="0 0 79 18" version="1.1" xmlns="http://www.w3.org/2000/svg" xmlns:xlink="http://www.w3.org/1999/xlink" xml:space="preserve" xmlns:serif="http://www.serif.com/" style="fill-rule:evenodd;clip-rule:evenodd;stroke-linejoin:round;stroke-miterlimit:2;"><path d="M35.533,0l7.91,0c0.162,0 0.317,0.064 0.432,0.179c0.114,0.114 0.179,0.27 0.179,0.432c-0,2.696 -0,13.516 -0,16.211c-0,0.162 -0.065,0.318 -0.179,0.432c-0.115,0.115 -0.27,0.179 -0.432,0.179c-4.848,0 -36.912,0 -36.912,0l-0,-4.96l0.035,-0c0.308,0.413 0.7,0.705 1.179,0.877c0.478,0.171 0.995,0.256 1.55,0.256c0.614,0 1.163,-0.127 1.647,-0.38c0.485,-0.254 0.895,-0.594 1.232,-1.019c0.336,-0.425 0.596,-0.913 0.779,-1.462c0.183,-0.549 0.275,-1.125 0.275,-1.727c-0,-0.65 -0.1,-1.246 -0.301,-1.79c-0.201,-0.543 -0.487,-1.012 -0.86,-1.408c-0.372,-0.396 -0.817,-0.703 -1.337,-0.921c-0.52,-0.219 -1.099,-0.328 -1.736,-0.328c-0.307,-0 -0.597,0.041 -0.869,0.124c-0.271,0.083 -0.522,0.189 -0.752,0.319c-0.231,0.13 -0.432,0.274 -0.603,0.434c-0.171,0.159 -0.31,0.316 -0.416,0.469l-0.036,0l0,-1.133l-2.445,-0l0,12.649l-3.262,0c-0.162,0 -0.318,-0.064 -0.432,-0.179c-0.115,-0.114 -0.179,-0.27 -0.179,-0.432l0,-16.211c-0,-0.162 0.064,-0.318 0.179,-0.432c0.114,-0.115 0.27,-0.179 0.432,-0.179c4.494,0 32.265,0 32.265,0l-0,13.394l2.657,-0l0,-3.251l4.009,4.009l1.485,-1.485l-2.5,-2.501l5.527,0l-0,-2.155l-5.496,0l2.066,-2.066l-1.628,-1.628l-3.463,3.462l0,-7.779Zm-5.403,7.565c-0.13,-0.189 -0.313,-0.345 -0.55,-0.469c-0.236,-0.124 -0.49,-0.186 -0.761,-0.186c-0.674,-0 -1.196,0.2 -1.568,0.602c-0.372,0.401 -0.558,0.927 -0.558,1.577c-0,0.649 0.186,1.175 0.558,1.576c0.372,0.402 0.894,0.603 1.568,0.603c0.295,-0 0.549,-0.065 0.761,-0.195c0.213,-0.13 0.396,-0.284 0.55,-0.461l1.754,1.843c-0.414,0.425 -0.901,0.723 -1.462,0.895c-0.561,0.171 -1.095,0.256 -1.603,0.256c-0.662,0 -1.285,-0.106 -1.869,-0.318c-0.585,-0.213 -1.093,-0.517 -1.524,-0.913c-0.431,-0.396 -0.771,-0.871 -1.019,-1.426c-0.248,-0.555 -0.372,-1.175 -0.372,-1.86c0,-0.685 0.124,-1.305 0.372,-1.861c0.248,-0.555 0.588,-1.03 1.019,-1.426c0.431,-0.395 0.939,-0.7 1.524,-0.912c0.584,-0.213 1.207,-0.319 1.869,-0.319c0.508,-0 1.042,0.086 1.603,0.257c0.561,0.171 1.048,0.469 1.462,0.895l-1.754,1.842Zm-9.939,4.748l-0.036,0c-0.295,0.461 -0.688,0.791 -1.178,0.992c-0.49,0.201 -1.007,0.301 -1.55,0.301c-0.402,0 -0.789,-0.056 -1.161,-0.168c-0.372,-0.112 -0.699,-0.28 -0.983,-0.505c-0.283,-0.224 -0.508,-0.502 -0.673,-0.832c-0.166,-0.331 -0.248,-0.715 -0.248,-1.152c-0,-0.496 0.091,-0.915 0.274,-1.258c0.183,-0.342 0.431,-0.626 0.744,-0.85c0.313,-0.225 0.671,-0.399 1.072,-0.523c0.402,-0.124 0.818,-0.216 1.249,-0.275c0.431,-0.059 0.863,-0.094 1.294,-0.106c0.431,-0.012 0.829,-0.018 1.196,-0.018c-0,-0.472 -0.169,-0.847 -0.505,-1.125c-0.337,-0.277 -0.736,-0.416 -1.196,-0.416c-0.437,0 -0.836,0.092 -1.196,0.275c-0.36,0.183 -0.682,0.434 -0.966,0.753l-1.417,-1.453c0.496,-0.461 1.075,-0.806 1.736,-1.037c0.662,-0.23 1.347,-0.345 2.055,-0.345c0.78,-0 1.421,0.097 1.923,0.292c0.502,0.195 0.903,0.482 1.204,0.86c0.302,0.377 0.511,0.841 0.629,1.39c0.118,0.549 0.177,1.184 0.177,1.905l0,4.376l-2.444,-0l-0,-1.081Zm-0.656,-2.693c-0.201,0 -0.452,0.009 -0.753,0.027c-0.301,0.017 -0.59,0.068 -0.868,0.15c-0.278,0.083 -0.514,0.207 -0.709,0.372c-0.195,0.166 -0.292,0.396 -0.292,0.691c-0,0.319 0.136,0.555 0.407,0.709c0.272,0.154 0.556,0.23 0.851,0.23c0.26,0 0.511,-0.035 0.753,-0.106c0.242,-0.071 0.458,-0.171 0.646,-0.301c0.189,-0.13 0.34,-0.295 0.452,-0.496c0.112,-0.201 0.169,-0.437 0.169,-0.709l-0,-0.567l-0.656,0Zm-13.217,-0.531c0,0.649 0.186,1.175 0.558,1.576c0.373,0.402 0.895,0.603 1.568,0.603c0.674,-0 1.196,-0.201 1.568,-0.603c0.372,-0.401 0.558,-0.927 0.558,-1.576c0,-0.65 -0.186,-1.176 -0.558,-1.577c-0.372,-0.402 -0.894,-0.602 -1.568,-0.602c-0.673,-0 -1.195,0.2 -1.568,0.602c-0.372,0.401 -0.558,0.927 -0.558,1.577Z" style="fill:#19483a;"/><path d="M51.42,10.147l-2.339,-0l-0,2.87c-0,0.236 0.012,0.452 0.035,0.647c0.024,0.195 0.077,0.363 0.16,0.505c0.083,0.141 0.21,0.251 0.381,0.327c0.171,0.077 0.398,0.116 0.682,0.116c0.142,-0 0.328,-0.015 0.558,-0.045c0.23,-0.029 0.404,-0.097 0.523,-0.203l-0,2.214c-0.296,0.106 -0.603,0.177 -0.922,0.213c-0.319,0.035 -0.632,0.053 -0.939,0.053c-0.448,-0 -0.862,-0.047 -1.24,-0.142c-0.378,-0.094 -0.709,-0.245 -0.992,-0.452c-0.283,-0.206 -0.505,-0.475 -0.664,-0.806c-0.16,-0.33 -0.24,-0.732 -0.24,-1.204l0,-4.093l-2.42,-0l-0,-2.126l2.42,-0l0,-2.551l2.658,-0l-0,2.551l2.339,-0l-0,2.126Zm7.919,2.179c-0,-0.685 0.124,-1.305 0.372,-1.86c0.248,-0.555 0.588,-1.031 1.019,-1.426c0.431,-0.396 0.939,-0.7 1.523,-0.913c0.585,-0.212 1.208,-0.319 1.869,-0.319c0.662,0 1.285,0.107 1.87,0.319c0.584,0.213 1.092,0.517 1.523,0.913c0.431,0.395 0.771,0.871 1.019,1.426c0.248,0.555 0.372,1.175 0.372,1.86c-0,0.685 -0.124,1.305 -0.372,1.86c-0.248,0.555 -0.588,1.031 -1.019,1.427c-0.431,0.395 -0.939,0.699 -1.523,0.912c-0.585,0.213 -1.208,0.319 -1.87,0.319c-0.661,-0 -1.284,-0.106 -1.869,-0.319c-0.584,-0.213 -1.092,-0.517 -1.523,-0.912c-0.431,-0.396 -0.771,-0.872 -1.019,-1.427c-0.248,-0.555 -0.372,-1.175 -0.372,-1.86Zm-6.573,-4.305l2.658,-0l-0,1.382l0.035,-0c0.283,-0.532 0.62,-0.93 1.01,-1.196c0.39,-0.266 0.88,-0.399 1.47,-0.399c0.154,0 0.307,0.006 0.461,0.018c0.154,0.012 0.295,0.035 0.425,0.071l0,2.427c-0.189,-0.059 -0.375,-0.103 -0.558,-0.133c-0.183,-0.029 -0.375,-0.044 -0.576,-0.044c-0.508,-0 -0.909,0.071 -1.204,0.213c-0.296,0.141 -0.523,0.339 -0.683,0.593c-0.159,0.254 -0.262,0.558 -0.31,0.912c-0.047,0.355 -0.07,0.745 -0.07,1.17l-0,3.596l-2.658,0l0,-8.61Zm17.699,-0l2.551,-0l0,1.169l0.036,0c0.082,-0.165 0.2,-0.33 0.354,-0.496c0.154,-0.165 0.337,-0.313 0.549,-0.443c0.213,-0.13 0.455,-0.236 0.727,-0.319c0.271,-0.082 0.567,-0.124 0.885,-0.124c0.674,0 1.217,0.104 1.63,0.31c0.414,0.207 0.736,0.493 0.966,0.86c0.23,0.366 0.387,0.797 0.469,1.293c0.083,0.496 0.124,1.033 0.124,1.612l0,4.748l-2.657,0l-0,-4.216c-0,-0.248 -0.009,-0.505 -0.027,-0.771c-0.017,-0.266 -0.07,-0.511 -0.159,-0.735c-0.089,-0.225 -0.224,-0.408 -0.408,-0.549c-0.183,-0.142 -0.445,-0.213 -0.788,-0.213c-0.342,-0 -0.62,0.062 -0.833,0.186c-0.212,0.124 -0.375,0.289 -0.487,0.496c-0.112,0.207 -0.186,0.44 -0.221,0.7c-0.036,0.26 -0.053,0.531 -0.053,0.815l-0,4.287l-2.658,0l0,-8.61Zm-4.056,3.858l-0,0.905l-1.811,0l-0,1.811l-0.905,0l-0,-1.811l-1.811,0l-0,-0.905l1.811,-0l-0,-1.811l0.905,-0l-0,1.811l1.811,-0Z" style="fill:#19483a;"/></svg>